<svg width="18" height="18" viewBox="0 0 18 18" fill="none" xmlns="http://www.w3.org/2000/svg">
<path d="M1.25 5.5C1.25 4.09987 1.25 3.3998 1.52248 2.86502C1.76217 2.39462 2.14462 2.01217 2.61502 1.77248C3.1498 1.5 3.84987 1.5 5.25 1.5H12.25C13.6501 1.5 14.3502 1.5 14.885 1.77248C15.3554 2.01217 15.7378 2.39462 15.9775 2.86502C16.25 3.3998 16.25 4.09987 16.25 5.5V10C16.25 11.4001 16.25 12.1002 15.9775 12.635C15.7378 13.1054 15.3554 13.4878 14.885 13.7275C14.3502 14 13.6501 14 12.25 14H10.1531C9.63308 14 9.37306 14 9.12435 14.051C8.90369 14.0963 8.69017 14.1712 8.48957 14.2737C8.26347 14.3892 8.06043 14.5517 7.65434 14.8765L5.66646 16.4668C5.31973 16.7442 5.14636 16.8829 5.00045 16.8831C4.87356 16.8832 4.75352 16.8255 4.67436 16.7263C4.58333 16.6123 4.58333 16.3903 4.58333 15.9463V14C3.80836 14 3.42087 14 3.10295 13.9148C2.24022 13.6836 1.56635 13.0098 1.33519 12.147C1.25 11.8291 1.25 11.4416 1.25 10.6667V5.5Z" stroke="#0093DD" stroke-width="2" stroke-linecap="round" stroke-linejoin="round"/>
</svg>
