<svg width="21" height="20" viewBox="0 0 21 20" fill="none" xmlns="http://www.w3.org/2000/svg">
<path d="M6.48242 15.292L9.06576 17.292C9.39909 17.6254 10.1491 17.792 10.6491 17.792H13.8158C14.8158 17.792 15.8991 17.042 16.1491 16.042L18.1491 9.95871C18.5658 8.79205 17.8158 7.79205 16.5658 7.79205H13.2324C12.7324 7.79205 12.3158 7.37538 12.3991 6.79205L12.8158 4.12538C12.9824 3.37538 12.4824 2.54205 11.7324 2.29205C11.0658 2.04205 10.2324 2.37538 9.89909 2.87538L6.48242 7.95871" stroke="#0093DD" stroke-width="1.66667" stroke-miterlimit="10"/>
<path d="M2.23242 15.291V7.12435C2.23242 5.95768 2.73242 5.54102 3.89909 5.54102H4.73242C5.89909 5.54102 6.39909 5.95768 6.39909 7.12435V15.291C6.39909 16.4577 5.89909 16.8743 4.73242 16.8743H3.89909C2.73242 16.8743 2.23242 16.4577 2.23242 15.291Z" stroke="#0093DD" stroke-width="1.66667" stroke-linecap="round" stroke-linejoin="round"/>
</svg>
